<svg width="64" height="64" viewBox="0 0 64 64" fill="none" xmlns="http://www.w3.org/2000/svg">
  <rect width="64" height="64" rx="12" fill="#f97316"/>
  <path d="M16 20h32v24H16V20z" fill="white" stroke="#f97316" stroke-width="2"/>
  <path d="M16 20h32v8H16V20z" fill="#fb923c"/>
  <path d="M20 24h8v2h-8v-2zm12 0h8v2h-8v-2z" fill="white"/>
  <path d="M20 32h8v2h-8v-2zm12 0h8v2h-8v-2z" fill="#f97316"/>
  <path d="M20 36h8v2h-8v-2zm12 0h8v2h-8v-2z" fill="#f97316"/>
  <path d="M20 40h8v2h-8v-2zm12 0h8v2h-8v-2z" fill="#f97316"/>
  <circle cx="52" cy="52" r="8" fill="#fbbf24"/>
  <path d="M48 52l3 3 5-5" stroke="white" stroke-width="2" fill="none"/>
</svg>